# xmcd
# 
# Track frame offsets:
#     150
#     17822
#     32152
#     55519
#     74820
#     92870
#     108753
#     126015
#     142522
#     164486
# 
# Disc length: 2472
# 
# Revision: 1
# Processed by: cddbd v1.5.2PL0 Copyright (c) Steve Scherf et al.
# Submitted via: BonkEnc v1.0.15
# 
DISCID=8009a60a
DTITLE=OLIVER DRAGOJEVIĆ - Vjeruj u ljubav
DYEAR=1979
DGENRE=Zabavni
TTITLE0=Vjeruj u ljubav
TTITLE1=Vagabundo
TTITLE2=Ostavljam te samu
TTITLE3=Ljubav je tvoja kao vino
TTITLE4=Ključ života
TTITLE5=Danijela
TTITLE6=Nocturno
TTITLE7=Sat klavira
TTITLE8=Balada o ćaćinom satu
TTITLE9=Mors amoris
EXTD=
EXTT0=
EXTT1=
EXTT2=
EXTT3=
EXTT4=
EXTT5=
EXTT6=
EXTT7=
EXTT8=
EXTT9=
PLAYORDER=
